<?xml version="1.0" encoding="UTF-8"?>
<svg xmlns="http://www.w3.org/2000/svg" xmlns:xlink="http://www.w3.org/1999/xlink" width="48px" height="48px" viewBox="0 0 48 48" version="1.1">
<g id="surface1">
<rect x="0" y="0" width="48" height="48" style="fill:rgb(31.764706%,16.862745%,83.137255%);fill-opacity:1;stroke:none;"/>
<path style=" stroke:none;fill-rule:nonzero;fill:rgb(100%,100%,100%);fill-opacity:1;" d="M 8.554688 30.667969 C 8.214844 30.667969 7.925781 30.554688 7.691406 30.328125 C 7.453125 30.09375 7.332031 29.820312 7.332031 29.5 C 7.332031 29.175781 7.453125 28.898438 7.691406 28.664062 C 7.925781 28.433594 8.214844 28.316406 8.554688 28.316406 C 8.898438 28.316406 9.191406 28.433594 9.429688 28.664062 C 9.671875 28.898438 9.792969 29.175781 9.792969 29.5 C 9.792969 29.820312 9.671875 30.09375 9.429688 30.328125 C 9.191406 30.554688 8.898438 30.667969 8.554688 30.667969 Z M 8.554688 30.667969 "/>
<path style=" stroke:none;fill-rule:nonzero;fill:rgb(100%,100%,100%);fill-opacity:1;" d="M 22.121094 30.476562 L 19.917969 30.476562 L 14.105469 21.304688 C 13.957031 21.074219 13.835938 20.832031 13.738281 20.582031 L 13.6875 20.582031 C 13.734375 20.851562 13.757812 21.421875 13.757812 22.296875 L 13.757812 30.476562 L 11.804688 30.476562 L 11.804688 18 L 14.15625 18 L 19.773438 26.953125 C 20.011719 27.324219 20.164062 27.578125 20.230469 27.71875 L 20.265625 27.71875 C 20.207031 27.386719 20.179688 26.828125 20.179688 26.039062 L 20.179688 18 L 22.121094 18 Z M 22.121094 30.476562 "/>
<path style=" stroke:none;fill-rule:nonzero;fill:rgb(100%,100%,100%);fill-opacity:1;" d="M 31.625 30.476562 L 24.796875 30.476562 L 24.796875 18 L 31.355469 18 L 31.355469 19.757812 L 26.816406 19.757812 L 26.816406 23.289062 L 31 23.289062 L 31 25.039062 L 26.816406 25.039062 L 26.816406 28.726562 L 31.625 28.726562 Z M 31.625 30.476562 "/>
<path style=" stroke:none;fill-rule:nonzero;fill:rgb(100%,100%,100%);fill-opacity:1;" d="M 41.332031 19.757812 L 37.835938 19.757812 L 37.835938 30.476562 L 35.816406 30.476562 L 35.816406 19.757812 L 32.332031 19.757812 L 32.332031 18 L 41.332031 18 Z M 41.332031 19.757812 "/>
</g>
</svg>
