<?xml version="1.0" encoding="UTF-8"?>
<svg xmlns="http://www.w3.org/2000/svg" xmlns:xlink="http://www.w3.org/1999/xlink" width="48px" height="48px" viewBox="0 0 48 48" version="1.1">
<g id="surface1">
<path style=" stroke:none;fill-rule:nonzero;fill:rgb(21.960784%,49.411765%,72.156863%);fill-opacity:1;" d="M 24 15.199219 L 9.601562 15.199219 C 9.601562 15.199219 5.601562 15.199219 5.601562 24 C 5.601562 32.800781 9.601562 32.800781 9.601562 32.800781 L 13.601562 32.800781 C 13.601562 32.800781 13.601562 32 13.601562 28.800781 C 13.601562 25.601562 16 23.199219 19.199219 23.199219 C 22.398438 23.199219 26.390625 23.199219 28.792969 23.199219 C 31.199219 23.199219 32.800781 21.601562 32.832031 19.160156 C 32.867188 16.722656 32.800781 9.601562 32.800781 9.601562 C 32.800781 9.601562 32.800781 5.601562 24 5.601562 C 15.199219 5.601562 15.199219 9.601562 15.199219 9.601562 L 15.199219 13.601562 L 24 13.601562 Z M 24 15.199219 "/>
<path style=" stroke:none;fill-rule:nonzero;fill:rgb(100%,76.470588%,19.215686%);fill-opacity:1;" d="M 24 32.800781 L 38.398438 32.800781 C 38.398438 32.800781 42.398438 32.800781 42.398438 24 C 42.398438 15.199219 38.398438 15.199219 38.398438 15.199219 L 34.398438 15.199219 C 34.398438 15.199219 34.398438 16 34.398438 19.199219 C 34.398438 22.398438 32 24.800781 28.800781 24.800781 C 25.601562 24.800781 21.601562 24.800781 19.199219 24.800781 C 16.800781 24.800781 15.199219 26.398438 15.199219 28.800781 C 15.199219 31.199219 15.199219 38.398438 15.199219 38.398438 C 15.199219 38.398438 15.199219 42.398438 24 42.398438 C 32.800781 42.398438 32.800781 38.398438 32.800781 38.398438 L 32.800781 34.398438 L 24 34.398438 Z M 24 32.800781 "/>
<path style=" stroke:none;fill-rule:nonzero;fill:rgb(100%,100%,100%);fill-opacity:1;" d="M 20.800781 9.601562 C 20.800781 10.484375 20.082031 11.199219 19.199219 11.199219 C 18.316406 11.199219 17.601562 10.484375 17.601562 9.601562 C 17.601562 8.714844 18.316406 8 19.199219 8 C 20.082031 8 20.800781 8.714844 20.800781 9.601562 Z M 20.800781 9.601562 "/>
<path style=" stroke:none;fill-rule:nonzero;fill:rgb(100%,100%,100%);fill-opacity:1;" d="M 30.398438 38.398438 C 30.398438 39.285156 29.683594 40 28.800781 40 C 27.917969 40 27.199219 39.285156 27.199219 38.398438 C 27.199219 37.515625 27.917969 36.800781 28.800781 36.800781 C 29.683594 36.800781 30.398438 37.515625 30.398438 38.398438 Z M 30.398438 38.398438 "/>
</g>
</svg>
