<?xml version="1.0" encoding="UTF-8"?>
<svg xmlns="http://www.w3.org/2000/svg" xmlns:xlink="http://www.w3.org/1999/xlink" width="48px" height="48px" viewBox="0 0 48 48" version="1.1">
<g id="surface1">
<path style=" stroke:none;fill-rule:nonzero;fill:rgb(42.745098%,70.196078%,24.705882%);fill-opacity:1;" d="M 43.699219 2.792969 C 43.03125 4.394531 42.167969 5.902344 41.128906 7.292969 C 35.066406 1.019531 26.074219 -1.460938 17.65625 0.816406 C 9.234375 3.089844 2.71875 9.761719 0.640625 18.234375 C -1.4375 26.703125 1.25 35.636719 7.664062 41.550781 L 8.550781 42.339844 C 15.4375 48.148438 25 49.59375 33.296875 46.089844 C 41.59375 42.582031 47.21875 34.714844 47.851562 25.730469 C 48.542969 19.699219 46.714844 11.988281 43.699219 2.792969 Z M 11.121094 41.746094 C 10.414062 42.617188 9.128906 42.75 8.257812 42.042969 C 7.386719 41.332031 7.253906 40.050781 7.960938 39.175781 C 8.671875 38.304688 9.953125 38.171875 10.824219 38.878906 C 11.679688 39.601562 11.808594 40.867188 11.121094 41.746094 Z M 43.550781 34.578125 C 37.667969 42.4375 25.011719 39.769531 16.957031 40.164062 C 16.957031 40.164062 15.523438 40.261719 14.089844 40.460938 C 14.089844 40.460938 14.632812 40.214844 15.324219 39.96875 C 21.007812 37.988281 23.679688 37.59375 27.140625 35.816406 C 33.613281 32.503906 40.089844 25.234375 41.375 17.722656 C 38.902344 24.9375 31.390625 31.167969 24.570312 33.6875 C 19.871094 35.417969 11.417969 37.101562 11.417969 37.101562 L 11.074219 36.902344 C 5.339844 34.085938 5.140625 21.628906 15.621094 17.625 C 20.21875 15.84375 24.570312 16.832031 29.5625 15.644531 C 34.851562 14.410156 40.980469 10.457031 43.453125 5.265625 C 46.21875 13.617188 49.582031 26.570312 43.550781 34.578125 Z M 43.550781 34.578125 "/>
</g>
</svg>
