<?xml version="1.0" encoding="UTF-8"?>
<svg xmlns="http://www.w3.org/2000/svg" xmlns:xlink="http://www.w3.org/1999/xlink" width="48px" height="48px" viewBox="0 0 48 48" version="1.1">
<g id="surface1">
<path style=" stroke:none;fill-rule:nonzero;fill:rgb(19.215686%,47.058824%,77.647059%);fill-opacity:1;" d="M 4.6875 0 L 43.3125 0 C 45.902344 0 48 2.097656 48 4.6875 L 48 43.3125 C 48 45.902344 45.902344 48 43.3125 48 L 4.6875 48 C 2.097656 48 0 45.902344 0 43.3125 L 0 4.6875 C 0 2.097656 2.097656 0 4.6875 0 Z M 4.6875 0 "/>
<path style=" stroke:none;fill-rule:nonzero;fill:rgb(19.215686%,47.058824%,77.647059%);fill-opacity:1;" d="M 4.6875 0 L 43.3125 0 C 45.902344 0 48 2.097656 48 4.6875 L 48 43.3125 C 48 45.902344 45.902344 48 43.3125 48 L 4.6875 48 C 2.097656 48 0 45.902344 0 43.3125 L 0 4.6875 C 0 2.097656 2.097656 0 4.6875 0 Z M 4.6875 0 "/>
<path style=" stroke:none;fill-rule:evenodd;fill:rgb(100%,100%,100%);fill-opacity:1;" d="M 29.714844 38.195312 L 29.714844 42.890625 C 30.476562 43.28125 31.378906 43.574219 32.421875 43.769531 C 33.460938 43.964844 34.558594 44.0625 35.714844 44.0625 C 36.839844 44.0625 37.90625 43.953125 38.917969 43.738281 C 39.933594 43.523438 40.820312 43.171875 41.582031 42.675781 C 42.347656 42.183594 42.949219 41.539062 43.394531 40.742188 C 43.839844 39.945312 44.0625 38.957031 44.0625 37.785156 C 44.0625 36.933594 43.933594 36.1875 43.679688 35.546875 C 43.425781 34.910156 43.058594 34.339844 42.582031 33.839844 C 42.101562 33.339844 41.527344 32.894531 40.855469 32.5 C 40.1875 32.101562 39.429688 31.726562 38.589844 31.375 C 37.972656 31.121094 37.421875 30.875 36.933594 30.636719 C 36.441406 30.394531 36.027344 30.152344 35.683594 29.902344 C 35.34375 29.652344 35.078125 29.390625 34.890625 29.109375 C 34.707031 28.832031 34.613281 28.515625 34.613281 28.164062 C 34.613281 27.839844 34.695312 27.550781 34.863281 27.292969 C 35.03125 27.03125 35.265625 26.808594 35.566406 26.625 C 35.871094 26.4375 36.242188 26.292969 36.683594 26.191406 C 37.121094 26.089844 37.613281 26.039062 38.148438 26.039062 C 38.539062 26.039062 38.953125 26.066406 39.390625 26.125 C 39.824219 26.183594 40.261719 26.273438 40.703125 26.398438 C 41.144531 26.519531 41.570312 26.671875 41.988281 26.859375 C 42.402344 27.042969 42.785156 27.261719 43.136719 27.503906 L 43.136719 23.117188 C 42.425781 22.84375 41.644531 22.640625 40.796875 22.511719 C 39.953125 22.378906 38.980469 22.3125 37.886719 22.3125 C 36.769531 22.3125 35.714844 22.433594 34.714844 22.671875 C 33.71875 22.910156 32.839844 23.285156 32.082031 23.792969 C 31.324219 24.300781 30.726562 24.949219 30.285156 25.738281 C 29.84375 26.523438 29.625 27.464844 29.625 28.558594 C 29.625 29.957031 30.027344 31.152344 30.835938 32.140625 C 31.640625 33.125 32.867188 33.960938 34.511719 34.648438 C 35.15625 34.910156 35.757812 35.167969 36.316406 35.425781 C 36.875 35.679688 37.355469 35.941406 37.761719 36.214844 C 38.167969 36.488281 38.488281 36.789062 38.722656 37.109375 C 38.957031 37.433594 39.074219 37.800781 39.074219 38.210938 C 39.074219 38.515625 39 38.792969 38.855469 39.054688 C 38.707031 39.3125 38.484375 39.539062 38.1875 39.730469 C 37.886719 39.917969 37.515625 40.070312 37.070312 40.175781 C 36.625 40.285156 36.105469 40.335938 35.507812 40.335938 C 34.492188 40.335938 33.484375 40.160156 32.484375 39.800781 C 31.488281 39.445312 30.5625 38.910156 29.714844 38.195312 Z M 21.824219 26.632812 L 27.84375 26.632812 L 27.84375 22.78125 L 11.0625 22.78125 L 11.0625 26.632812 L 17.054688 26.632812 L 17.054688 43.78125 L 21.824219 43.78125 Z M 21.824219 26.632812 "/>
</g>
</svg>
